<svg xmlns="http://www.w3.org/2000/svg" viewBox="0 0 512 512">
  <defs>
    <linearGradient id="grad1" x1="0%" y1="0%" x2="100%" y2="100%">
      <stop offset="0%" style="stop-color:#6366f1;stop-opacity:1" />
      <stop offset="100%" style="stop-color:#8b5cf6;stop-opacity:1" />
    </linearGradient>
  </defs>
  
  <!-- Background -->
  <rect width="512" height="512" fill="url(#grad1)" rx="80"/>
  
  <!-- QR Code Pattern -->
  <!-- Top Left Corner -->
  <rect x="80" y="80" width="120" height="120" fill="white" rx="8"/>
  <rect x="100" y="100" width="80" height="80" fill="#6366f1" rx="4"/>
  <rect x="120" y="120" width="40" height="40" fill="white" rx="2"/>
  
  <!-- Top Right Corner -->
  <rect x="312" y="80" width="120" height="120" fill="white" rx="8"/>
  <rect x="332" y="100" width="80" height="80" fill="#6366f1" rx="4"/>
  <rect x="352" y="120" width="40" height="40" fill="white" rx="2"/>
  
  <!-- Bottom Left Corner -->
  <rect x="80" y="312" width="120" height="120" fill="white" rx="8"/>
  <rect x="100" y="332" width="80" height="80" fill="#6366f1" rx="4"/>
  <rect x="120" y="352" width="40" height="40" fill="white" rx="2"/>
  
  <!-- Data dots/blocks -->
  <rect x="230" y="90" width="35" height="35" fill="white" rx="4"/>
  <rect x="275" y="90" width="25" height="25" fill="white" rx="4"/>
  
  <rect x="90" y="230" width="25" height="25" fill="white" rx="4"/>
  <rect x="125" y="230" width="35" height="35" fill="white" rx="4"/>
  <rect x="170" y="230" width="25" height="25" fill="white" rx="4"/>
  
  <rect x="230" y="140" width="25" height="45" fill="white" rx="4"/>
  <rect x="265" y="145" width="35" height="35" fill="white" rx="4"/>
  
  <rect x="230" y="200" width="35" height="25" fill="white" rx="4"/>
  <rect x="275" y="200" width="25" height="35" fill="white" rx="4"/>
  
  <rect x="230" y="245" width="25" height="35" fill="white" rx="4"/>
  <rect x="265" y="255" width="35" height="25" fill="white" rx="4"/>
  
  <rect x="312" y="230" width="45" height="35" fill="white" rx="4"/>
  <rect x="367" y="235" width="25" height="25" fill="white" rx="4"/>
  <rect x="402" y="230" width="30" height="35" fill="white" rx="4"/>
  
  <rect x="230" y="295" width="35" height="35" fill="white" rx="4"/>
  <rect x="275" y="305" width="25" height="25" fill="white" rx="4"/>
  
  <rect x="230" y="345" width="25" height="35" fill="white" rx="4"/>
  <rect x="265" y="350" width="35" height="25" fill="white" rx="4"/>
  <rect x="230" y="390" width="35" height="35" fill="white" rx="4"/>
  <rect x="275" y="400" width="25" height="25" fill="white" rx="4"/>
  
  <rect x="322" y="295" width="35" height="35" fill="white" rx="4"/>
  <rect x="367" y="305" width="25" height="25" fill="white" rx="4"/>
  <rect x="402" y="295" width="30" height="35" fill="white" rx="4"/>
  
  <rect x="322" y="345" width="25" height="35" fill="white" rx="4"/>
  <rect x="357" y="350" width="35" height="25" fill="white" rx="4"/>
  <rect x="402" y="345" width="30" height="35" fill="white" rx="4"/>
  
  <rect x="322" y="390" width="35" height="35" fill="white" rx="4"/>
  <rect x="367" y="400" width="25" height="25" fill="white" rx="4"/>
  <rect x="402" y="395" width="30" height="30" fill="white" rx="4"/>
</svg>
